# xmcd
#
# Track frame offsets: 
#        150
#        15974
#        29407
#        43459
#        57791
#        76237
#        90267
#        112403
#        124784
#        144191
#
# Disc length: 2119 seconds
#
# Revision: 0
# Processed by: cddbd v1.5.2PL0 Copyright (c) Steve Scherf et al.
# Submitted via: ExactAudioCopy v0.95b3
#
DISCID=7a08450a
DTITLE=Tina Turner - Tina Turns The Country On
DYEAR=1974
DGENRE=Country
TTITLE0=Bayou Song
TTITLE1=Help Me Make It Trough The Night
TTITLE2=Tonight I´ll Be Staying Here With You
TTITLE3=If You Love Me (Let Me Know)
TTITLE4=He Belongs To Me
TTITLE5=Don´t Talk Now
TTITLE6=Long Long Time
TTITLE7=I´m Moving On
TTITLE8=There´ll Always Be Music
TTITLE9=The Love That Lights Our Way
EXTD=
EXTT0=
EXTT1=
EXTT2=
EXTT3=
EXTT4=
EXTT5=
EXTT6=
EXTT7=
EXTT8=
EXTT9=
PLAYORDER=
